<mxfile host="app.diagrams.net" agent="Mozilla/5.0 (Windows NT 10.0; Win64; x64) AppleWebKit/537.36 (KHTML, like Gecko) Chrome/131.0.0.0 Safari/537.36 Edg/131.0.0.0" version="26.0.2">
  <diagram id="C5RBs43oDa-KdzZeNtuy" name="Page-1">
    <mxGraphModel dx="1002" dy="565" grid="1" gridSize="10" guides="1" tooltips="1" connect="1" arrows="1" fold="1" page="1" pageScale="1" pageWidth="827" pageHeight="1169" math="0" shadow="0">
      <root>
        <mxCell id="WIyWlLk6GJQsqaUBKTNV-0" />
        <mxCell id="WIyWlLk6GJQsqaUBKTNV-1" parent="WIyWlLk6GJQsqaUBKTNV-0" />
        <mxCell id="1GjjcHumpLERZe7r9OzO-1" style="edgeStyle=orthogonalEdgeStyle;rounded=0;orthogonalLoop=1;jettySize=auto;html=1;fontFamily=Times New Roman;" parent="WIyWlLk6GJQsqaUBKTNV-1" source="1GjjcHumpLERZe7r9OzO-4" target="WIyWlLk6GJQsqaUBKTNV-3" edge="1">
          <mxGeometry relative="1" as="geometry">
            <mxPoint x="413.9999999999998" y="230" as="sourcePoint" />
          </mxGeometry>
        </mxCell>
        <mxCell id="WIyWlLk6GJQsqaUBKTNV-3" value="Ruột túi hơi của vòng quấn huyết áp" style="rounded=1;whiteSpace=wrap;html=1;fontSize=12;glass=0;strokeWidth=1;shadow=0;fontFamily=Times New Roman;" parent="WIyWlLk6GJQsqaUBKTNV-1" vertex="1">
          <mxGeometry x="150" y="190" width="140" height="60" as="geometry" />
        </mxCell>
        <mxCell id="KJeyor10NTmtw9uwLLGZ-7" style="edgeStyle=orthogonalEdgeStyle;rounded=0;orthogonalLoop=1;jettySize=auto;html=1;entryX=0.5;entryY=0;entryDx=0;entryDy=0;fontFamily=Times New Roman;" parent="WIyWlLk6GJQsqaUBKTNV-1" source="1GjjcHumpLERZe7r9OzO-4" target="1GjjcHumpLERZe7r9OzO-7" edge="1">
          <mxGeometry relative="1" as="geometry" />
        </mxCell>
        <mxCell id="1GjjcHumpLERZe7r9OzO-4" value="Máy bơm khí" style="rounded=1;whiteSpace=wrap;html=1;fontFamily=Times New Roman;" parent="WIyWlLk6GJQsqaUBKTNV-1" vertex="1">
          <mxGeometry x="360" y="190" width="130" height="60" as="geometry" />
        </mxCell>
        <mxCell id="1GjjcHumpLERZe7r9OzO-7" value="  Van xả điện tử thường mở" style="rounded=1;whiteSpace=wrap;html=1;fontFamily=Times New Roman;" parent="WIyWlLk6GJQsqaUBKTNV-1" vertex="1">
          <mxGeometry x="340" y="310" width="170" height="60" as="geometry" />
        </mxCell>
        <mxCell id="1GjjcHumpLERZe7r9OzO-19" style="edgeStyle=orthogonalEdgeStyle;rounded=0;orthogonalLoop=1;jettySize=auto;html=1;entryX=0.5;entryY=1;entryDx=0;entryDy=0;fontFamily=Times New Roman;" parent="WIyWlLk6GJQsqaUBKTNV-1" target="WIyWlLk6GJQsqaUBKTNV-3" edge="1">
          <mxGeometry relative="1" as="geometry">
            <mxPoint x="220" y="339.54999999999995" as="targetPoint" />
            <mxPoint x="340" y="340" as="sourcePoint" />
          </mxGeometry>
        </mxCell>
        <mxCell id="1GjjcHumpLERZe7r9OzO-11" value="  Cảm biến áp suất" style="rounded=1;whiteSpace=wrap;html=1;fontFamily=Times New Roman;" parent="WIyWlLk6GJQsqaUBKTNV-1" vertex="1">
          <mxGeometry x="360" y="550" width="130" height="60" as="geometry" />
        </mxCell>
        <mxCell id="1GjjcHumpLERZe7r9OzO-15" value="  Biến đổi dao động áp suất" style="rounded=1;whiteSpace=wrap;html=1;fontFamily=Times New Roman;" parent="WIyWlLk6GJQsqaUBKTNV-1" vertex="1">
          <mxGeometry x="340" y="430" width="170" height="60" as="geometry" />
        </mxCell>
        <mxCell id="1GjjcHumpLERZe7r9OzO-20" value="   Bộ chuyển đổi tương tự sang số" style="rounded=1;whiteSpace=wrap;html=1;fontFamily=Times New Roman;" parent="WIyWlLk6GJQsqaUBKTNV-1" vertex="1">
          <mxGeometry x="350" y="670" width="150" height="60" as="geometry" />
        </mxCell>
        <mxCell id="1GjjcHumpLERZe7r9OzO-24" value="   Vi xử lý" style="rounded=1;whiteSpace=wrap;html=1;fontFamily=Times New Roman;" parent="WIyWlLk6GJQsqaUBKTNV-1" vertex="1">
          <mxGeometry x="370" y="790" width="110" height="50" as="geometry" />
        </mxCell>
        <mxCell id="1GjjcHumpLERZe7r9OzO-27" value="   Hiển thị các thông số (SYS, DYS, HR, MRP)" style="rounded=1;whiteSpace=wrap;html=1;fontFamily=Times New Roman;" parent="WIyWlLk6GJQsqaUBKTNV-1" vertex="1">
          <mxGeometry x="340" y="900" width="170" height="60" as="geometry" />
        </mxCell>
        <mxCell id="1GjjcHumpLERZe7r9OzO-28" value="   Đèn LED báo mức huyết áp cao/thấp" style="rounded=1;whiteSpace=wrap;html=1;fontFamily=Times New Roman;" parent="WIyWlLk6GJQsqaUBKTNV-1" vertex="1">
          <mxGeometry x="340" y="1020" width="170" height="60" as="geometry" />
        </mxCell>
        <mxCell id="KJeyor10NTmtw9uwLLGZ-10" style="edgeStyle=orthogonalEdgeStyle;rounded=0;orthogonalLoop=1;jettySize=auto;html=1;entryX=0.5;entryY=0;entryDx=0;entryDy=0;fontFamily=Times New Roman;" parent="WIyWlLk6GJQsqaUBKTNV-1" edge="1">
          <mxGeometry relative="1" as="geometry">
            <mxPoint x="424.85" y="370" as="sourcePoint" />
            <mxPoint x="424.85" y="430" as="targetPoint" />
          </mxGeometry>
        </mxCell>
        <mxCell id="KJeyor10NTmtw9uwLLGZ-12" style="edgeStyle=orthogonalEdgeStyle;rounded=0;orthogonalLoop=1;jettySize=auto;html=1;entryX=0.5;entryY=0;entryDx=0;entryDy=0;fontFamily=Times New Roman;" parent="WIyWlLk6GJQsqaUBKTNV-1" edge="1">
          <mxGeometry relative="1" as="geometry">
            <mxPoint x="424.81" y="490" as="sourcePoint" />
            <mxPoint x="424.81" y="550" as="targetPoint" />
          </mxGeometry>
        </mxCell>
        <mxCell id="KJeyor10NTmtw9uwLLGZ-13" style="edgeStyle=orthogonalEdgeStyle;rounded=0;orthogonalLoop=1;jettySize=auto;html=1;entryX=0.5;entryY=0;entryDx=0;entryDy=0;fontFamily=Times New Roman;" parent="WIyWlLk6GJQsqaUBKTNV-1" edge="1">
          <mxGeometry relative="1" as="geometry">
            <mxPoint x="424.81" y="610" as="sourcePoint" />
            <mxPoint x="424.81" y="670" as="targetPoint" />
          </mxGeometry>
        </mxCell>
        <mxCell id="KJeyor10NTmtw9uwLLGZ-14" style="edgeStyle=orthogonalEdgeStyle;rounded=0;orthogonalLoop=1;jettySize=auto;html=1;entryX=0.5;entryY=0;entryDx=0;entryDy=0;fontFamily=Times New Roman;" parent="WIyWlLk6GJQsqaUBKTNV-1" edge="1">
          <mxGeometry relative="1" as="geometry">
            <mxPoint x="424.69" y="730" as="sourcePoint" />
            <mxPoint x="424.69" y="790" as="targetPoint" />
          </mxGeometry>
        </mxCell>
        <mxCell id="KJeyor10NTmtw9uwLLGZ-15" style="edgeStyle=orthogonalEdgeStyle;rounded=0;orthogonalLoop=1;jettySize=auto;html=1;entryX=0.5;entryY=0;entryDx=0;entryDy=0;fontFamily=Times New Roman;" parent="WIyWlLk6GJQsqaUBKTNV-1" edge="1">
          <mxGeometry relative="1" as="geometry">
            <mxPoint x="424.69" y="840" as="sourcePoint" />
            <mxPoint x="424.69" y="900" as="targetPoint" />
          </mxGeometry>
        </mxCell>
        <mxCell id="KJeyor10NTmtw9uwLLGZ-16" style="edgeStyle=orthogonalEdgeStyle;rounded=0;orthogonalLoop=1;jettySize=auto;html=1;entryX=0.5;entryY=0;entryDx=0;entryDy=0;fontFamily=Times New Roman;" parent="WIyWlLk6GJQsqaUBKTNV-1" edge="1">
          <mxGeometry relative="1" as="geometry">
            <mxPoint x="424.69" y="960" as="sourcePoint" />
            <mxPoint x="424.69" y="1020" as="targetPoint" />
          </mxGeometry>
        </mxCell>
        <mxCell id="KJeyor10NTmtw9uwLLGZ-19" style="edgeStyle=orthogonalEdgeStyle;rounded=0;orthogonalLoop=1;jettySize=auto;html=1;fontFamily=Times New Roman;" parent="WIyWlLk6GJQsqaUBKTNV-1" source="KJeyor10NTmtw9uwLLGZ-17" target="1GjjcHumpLERZe7r9OzO-4" edge="1">
          <mxGeometry relative="1" as="geometry" />
        </mxCell>
        <mxCell id="KJeyor10NTmtw9uwLLGZ-17" value="Nút bấm &quot;Bình thường&quot;" style="rounded=1;whiteSpace=wrap;html=1;fontFamily=Times New Roman;" parent="WIyWlLk6GJQsqaUBKTNV-1" vertex="1">
          <mxGeometry x="279.5" y="40" width="130" height="60" as="geometry" />
        </mxCell>
        <mxCell id="KJeyor10NTmtw9uwLLGZ-20" style="edgeStyle=orthogonalEdgeStyle;rounded=0;orthogonalLoop=1;jettySize=auto;html=1;entryX=0.5;entryY=0;entryDx=0;entryDy=0;fontFamily=Times New Roman;" parent="WIyWlLk6GJQsqaUBKTNV-1" source="KJeyor10NTmtw9uwLLGZ-18" target="1GjjcHumpLERZe7r9OzO-4" edge="1">
          <mxGeometry relative="1" as="geometry" />
        </mxCell>
        <mxCell id="KJeyor10NTmtw9uwLLGZ-18" value="Nút bấm &quot;Người lớn tuổi&quot;" style="rounded=1;whiteSpace=wrap;html=1;fontFamily=Times New Roman;" parent="WIyWlLk6GJQsqaUBKTNV-1" vertex="1">
          <mxGeometry x="440.5" y="40" width="130" height="60" as="geometry" />
        </mxCell>
      </root>
    </mxGraphModel>
  </diagram>
</mxfile>
